<?xml version="1.0" encoding="UTF-8" standalone="no"?>
<!-- Created with Inkscape (http://www.inkscape.org/) -->

<svg
   width="114.40028mm"
   height="36.030727mm"
   viewBox="0 0 114.40026 36.030727"
   version="1.1"
   id="svg5"
   inkscape:export-filename="getfitwithmikesvg"
   inkscape:export-xdpi="96"
   inkscape:export-ydpi="96"
   sodipodi:docname="getfitwithmike.svg"
   inkscape:version="1.2.1 (9c6d41e410, 2022-07-14)"
   xmlns:inkscape="http://www.inkscape.org/namespaces/inkscape"
   xmlns:sodipodi="http://sodipodi.sourceforge.net/DTD/sodipodi-0.dtd"
   xmlns="http://www.w3.org/2000/svg"
   xmlns:svg="http://www.w3.org/2000/svg">
  <sodipodi:namedview
     id="namedview7"
     pagecolor="#505050"
     bordercolor="#eeeeee"
     borderopacity="1"
     inkscape:showpageshadow="false"
     inkscape:pageopacity="0"
     inkscape:pagecheckerboard="true"
     inkscape:deskcolor="#505050"
     inkscape:document-units="mm"
     showgrid="false"
     inkscape:zoom="2.1770318"
     inkscape:cx="51.675864"
     inkscape:cy="54.891251"
     inkscape:window-width="1920"
     inkscape:window-height="1051"
     inkscape:window-x="-9"
     inkscape:window-y="-9"
     inkscape:window-maximized="1"
     inkscape:current-layer="g2800" />
  <defs
     id="defs2">
    <filter
       style="color-interpolation-filters:sRGB"
       inkscape:label="Drop Shadow"
       id="filter1770"
       x="-0.065395881"
       y="-0.05249344"
       width="1.0866054"
       height="1.2580927">
      <feFlood
         flood-opacity="0.8"
         flood-color="rgb(0,0,0)"
         result="flood"
         id="feFlood1760" />
      <feComposite
         in="flood"
         in2="SourceGraphic"
         operator="in"
         result="composite1"
         id="feComposite1762" />
      <feGaussianBlur
         in="composite1"
         stdDeviation="0.1"
         result="blur"
         id="feGaussianBlur1764" />
      <feOffset
         dx="-0.5"
         dy="0.7"
         result="offset"
         id="feOffset1766" />
      <feComposite
         in="SourceGraphic"
         in2="offset"
         operator="over"
         result="composite2"
         id="feComposite1768" />
    </filter>
  </defs>
  <g
     inkscape:label="Layer 1"
     inkscape:groupmode="layer"
     id="layer1"
     transform="translate(-56.425131,-60.299214)">
    <g
       id="g2800"
       transform="translate(-11.788796,1.2153398)">
      <g
         aria-label="With"
         transform="matrix(2.2283968,0,0,2.2283968,54.134419,-15.348827)"
         id="text1786"
         style="font-weight:bold;font-size:6.35px;font-family:Bungee;-inkscape-font-specification:'Bungee Bold';white-space:pre;fill:#ececec;stroke-width:0.264583;filter:url(#filter1770)">
        <path
           d="m 28.4711,40.45925 h 0.94615 q 0.12065,0 0.17145,0.05715 0.05715,0.0508 0.05715,0.17145 v 2.4638 q 0,0.2032 -0.01905,0.381 -0.0127,0.17145 -0.09525,0.4064 l -0.3175,0.8636 q -0.03175,0.09525 -0.09525,0.1651 -0.05715,0.0635 -0.15875,0.0635 H 28.1155 q -0.1016,0 -0.18415,-0.04445 Q 27.8488,44.94235 27.8234,44.84075 L 27.5313,43.8057 q -0.01905,-0.0635 -0.0508,-0.08255 -0.0254,-0.0254 -0.0635,-0.0254 h -0.05715 q -0.0381,0 -0.06985,0.0254 -0.0254,0.01905 -0.04445,0.08255 L 26.9471,44.84075 Q 26.9217,44.936 26.85185,44.9868 26.782,45.03125 26.6804,45.03125 h -0.8382 q -0.1016,0 -0.1778,-0.0635 -0.06985,-0.0635 -0.1016,-0.1651 l -0.3175,-0.8763 q -0.08255,-0.23495 -0.1016,-0.4064 -0.0127,-0.1778 -0.0127,-0.381 v -2.4511 q 0,-0.12065 0.0508,-0.17145 0.05715,-0.05715 0.1778,-0.05715 h 0.9779 q 0.12065,0 0.17145,0.05715 0.05715,0.0508 0.05715,0.17145 v 2.3368 l 0.3683,-0.8001 q 0.0508,-0.10795 0.13335,-0.1524 0.08255,-0.04445 0.2032,-0.04445 h 0.2667 q 0.12065,0 0.2032,0.04445 0.08255,0.04445 0.13335,0.1524 l 0.3683,0.8001 v -2.3368 q 0,-0.12065 0.0508,-0.17145 0.05715,-0.05715 0.1778,-0.05715 z"
           id="path588" />
        <path
           d="m 30.591996,45.03125 q -0.12065,0 -0.1778,-0.0508 -0.0508,-0.05715 -0.0508,-0.1778 V 44.047 q 0,-0.12065 0.0508,-0.17145 0.05715,-0.05715 0.1778,-0.05715 h 0.62865 v -2.1336 h -0.62865 q -0.12065,0 -0.1778,-0.0508 -0.0508,-0.05715 -0.0508,-0.1778 v -0.76835 q 0,-0.12065 0.0508,-0.17145 0.05715,-0.05715 0.1778,-0.05715 h 2.7051 q 0.12065,0 0.17145,0.05715 0.05715,0.0508 0.05715,0.17145 v 0.76835 q 0,0.12065 -0.05715,0.1778 -0.0508,0.0508 -0.17145,0.0508 h -0.61595 v 2.1336 h 0.61595 q 0.12065,0 0.17145,0.05715 0.05715,0.0508 0.05715,0.17145 v 0.75565 q 0,0.12065 -0.05715,0.1778 -0.0508,0.0508 -0.17145,0.0508 z"
           id="path590" />
        <path
           d="m 36.465743,45.03125 h -1.0287 q -0.12065,0 -0.1778,-0.0508 -0.0508,-0.05715 -0.0508,-0.1778 V 41.6848 h -0.93345 q -0.12065,0 -0.1778,-0.0508 -0.0508,-0.05715 -0.0508,-0.1778 v -0.76835 q 0,-0.12065 0.0508,-0.17145 0.05715,-0.05715 0.1778,-0.05715 h 3.3528 q 0.12065,0 0.17145,0.05715 0.05715,0.0508 0.05715,0.17145 v 0.76835 q 0,0.12065 -0.05715,0.1778 -0.0508,0.0508 -0.17145,0.0508 h -0.93345 v 3.11785 q 0,0.12065 -0.05715,0.1778 -0.0508,0.0508 -0.17145,0.0508 z"
           id="path592" />
        <path
           d="m 39.685194,45.03125 h -0.98425 q -0.12065,0 -0.1778,-0.0508 -0.0508,-0.05715 -0.0508,-0.1778 v -4.1148 q 0,-0.12065 0.0508,-0.17145 0.05715,-0.05715 0.1778,-0.05715 h 0.98425 q 0.12065,0 0.17145,0.05715 0.05715,0.0508 0.05715,0.17145 v 1.37795 h 1.06045 v -1.37795 q 0,-0.12065 0.0508,-0.17145 0.05715,-0.05715 0.1778,-0.05715 h 0.98425 q 0.12065,0 0.17145,0.05715 0.05715,0.0508 0.05715,0.17145 v 4.1148 q 0,0.12065 -0.05715,0.1778 -0.0508,0.0508 -0.17145,0.0508 h -0.98425 q -0.12065,0 -0.1778,-0.0508 -0.0508,-0.05715 -0.0508,-0.1778 v -1.4097 h -1.06045 v 1.4097 q 0,0.12065 -0.05715,0.1778 -0.0508,0.0508 -0.17145,0.0508 z"
           id="path594" />
      </g>
      <g
         aria-label="Mike"
         transform="matrix(2.2283968,0,0,2.2283968,86.948594,-7.3275846)"
         id="text1892"
         style="font-weight:bold;font-size:6.35px;font-family:Bungee;-inkscape-font-specification:'Bungee Bold';white-space:pre;fill:#d00708;stroke-width:0.264583;filter:url(#filter1770)">
        <path
           d="m 26.3629,45.03125 h -0.94615 q -0.12065,0 -0.1778,-0.0508 -0.0508,-0.05715 -0.0508,-0.1778 v -4.1148 q 0,-0.12065 0.0508,-0.17145 0.05715,-0.05715 0.1778,-0.05715 h 1.02235 q 0.1016,0 0.1651,0.04445 0.06985,0.04445 0.127,0.14605 l 0.5715,1.03505 q 0.03175,0.05715 0.0508,0.08255 0.0254,0.0254 0.0635,0.0254 h 0.05715 q 0.0381,0 0.05715,-0.0254 0.0254,-0.0254 0.05715,-0.08255 l 0.56515,-1.03505 q 0.05715,-0.1016 0.12065,-0.14605 0.06985,-0.04445 0.17145,-0.04445 h 1.0287 q 0.12065,0 0.17145,0.05715 0.05715,0.0508 0.05715,0.17145 v 4.1148 q 0,0.12065 -0.05715,0.1778 -0.0508,0.0508 -0.17145,0.0508 h -0.9779 q -0.12065,0 -0.1778,-0.0508 -0.0508,-0.05715 -0.0508,-0.1778 v -2.2352 l -0.37465,0.69215 q -0.05715,0.10795 -0.1397,0.15875 -0.0762,0.04445 -0.19685,0.04445 h -0.254 q -0.12065,0 -0.2032,-0.04445 -0.0762,-0.0508 -0.13335,-0.15875 L 26.5915,42.56745 v 2.2352 q 0,0.12065 -0.05715,0.1778 -0.0508,0.0508 -0.17145,0.0508 z"
           id="path605" />
        <path
           d="m 30.706306,45.03125 q -0.12065,0 -0.1778,-0.0508 -0.0508,-0.05715 -0.0508,-0.1778 V 44.047 q 0,-0.12065 0.0508,-0.17145 0.05715,-0.05715 0.1778,-0.05715 h 0.62865 v -2.1336 h -0.62865 q -0.12065,0 -0.1778,-0.0508 -0.0508,-0.05715 -0.0508,-0.1778 v -0.76835 q 0,-0.12065 0.0508,-0.17145 0.05715,-0.05715 0.1778,-0.05715 h 2.7051 q 0.12065,0 0.17145,0.05715 0.05715,0.0508 0.05715,0.17145 v 0.76835 q 0,0.12065 -0.05715,0.1778 -0.0508,0.0508 -0.17145,0.0508 h -0.61595 v 2.1336 h 0.61595 q 0.12065,0 0.17145,0.05715 0.05715,0.0508 0.05715,0.17145 v 0.75565 q 0,0.12065 -0.05715,0.1778 -0.0508,0.0508 -0.17145,0.0508 z"
           id="path607" />
        <path
           d="m 35.633903,45.03125 h -0.98425 q -0.12065,0 -0.1778,-0.0508 -0.0508,-0.05715 -0.0508,-0.1778 v -4.1148 q 0,-0.12065 0.0508,-0.17145 0.05715,-0.05715 0.1778,-0.05715 h 0.98425 q 0.12065,0 0.171449,0.05715 0.05715,0.0508 0.05715,0.17145 v 1.4605 h 0.254 l 0.65405,-1.47955 q 0.04445,-0.1143 0.12065,-0.15875 0.0762,-0.0508 0.19685,-0.0508 h 0.9779 q 0.10795,0 0.14605,0.05715 0.0381,0.0508 -0.0063,0.1524 l -0.6477,1.47955 q 0.3556,0.01905 0.56515,0.254 0.2159,0.2286 0.2159,0.6096 v 1.7907 q 0,0.12065 -0.05715,0.1778 -0.0508,0.0508 -0.17145,0.0508 h -0.9779 q -0.12065,0 -0.1778,-0.0508 -0.0508,-0.05715 -0.0508,-0.1778 V 43.5644 q 0,-0.1016 -0.0508,-0.15875 -0.0508,-0.05715 -0.1524,-0.05715 h -0.8382 v 1.45415 q 0,0.12065 -0.05715,0.1778 -0.0508,0.0508 -0.171449,0.0508 z"
           id="path609" />
        <path
           d="m 42.333154,45.03125 h -2.9464 q -0.12065,0 -0.1778,-0.0508 -0.0508,-0.05715 -0.0508,-0.1778 v -4.1148 q 0,-0.12065 0.0508,-0.17145 0.05715,-0.05715 0.1778,-0.05715 h 2.9464 q 0.12065,0 0.17145,0.05715 0.05715,0.0508 0.05715,0.17145 v 0.74295 q 0,0.12065 -0.05715,0.1778 -0.0508,0.0508 -0.17145,0.0508 h -1.7526 v 0.48895 h 1.23825 q 0.12065,0 0.17145,0.05715 0.05715,0.0508 0.05715,0.17145 v 0.67945 q 0,0.12065 -0.05715,0.1778 -0.0508,0.0508 -0.17145,0.0508 h -1.23825 v 0.5461 h 1.7526 q 0.12065,0 0.17145,0.05715 0.05715,0.0508 0.05715,0.17145 v 0.74295 q 0,0.12065 -0.05715,0.1778 -0.0508,0.0508 -0.17145,0.0508 z"
           id="path611" />
      </g>
      <g
         aria-label="GET"
         transform="matrix(2.2283968,0,0,2.2283968,14.028207,-30.540574)"
         id="text2790"
         style="font-weight:bold;font-size:6.35px;font-family:Bungee;-inkscape-font-specification:'Bungee Bold';white-space:pre;fill:#ececec;stroke-width:0.264583;filter:url(#filter1770)">
        <path
           d="M 28.68065,45.03125 H 26.6804 q -0.79375,0 -1.1811,-0.3175 -0.381,-0.3175 -0.381,-0.9779 v -1.9812 q 0,-0.6604 0.381,-0.9779 0.38735,-0.3175 1.1811,-0.3175 h 1.5875 q 0.12065,0 0.17145,0.05715 0.05715,0.0508 0.05715,0.17145 v 0.76835 q 0,0.12065 -0.05715,0.1778 -0.0508,0.0508 -0.17145,0.0508 h -1.3208 q -0.19685,0 -0.2921,0.08255 -0.09525,0.0762 -0.09525,0.23495 v 1.51765 q 0,0.15875 0.06985,0.23495 0.0762,0.0762 0.22225,0.0762 h 0.61595 v -0.9906 q 0,-0.12065 0.0508,-0.17145 0.05715,-0.05715 0.1778,-0.05715 h 0.98425 q 0.12065,0 0.17145,0.05715 0.05715,0.0508 0.05715,0.17145 v 1.96215 q 0,0.12065 -0.05715,0.1778 -0.0508,0.0508 -0.17145,0.0508 z"
           id="path562" />
        <path
           d="m 32.858951,45.03125 h -2.9464 q -0.12065,0 -0.1778,-0.0508 -0.0508,-0.05715 -0.0508,-0.1778 v -4.1148 q 0,-0.12065 0.0508,-0.17145 0.05715,-0.05715 0.1778,-0.05715 h 2.9464 q 0.12065,0 0.17145,0.05715 0.05715,0.0508 0.05715,0.17145 v 0.74295 q 0,0.12065 -0.05715,0.1778 -0.0508,0.0508 -0.17145,0.0508 h -1.7526 v 0.48895 h 1.23825 q 0.12065,0 0.17145,0.05715 0.05715,0.0508 0.05715,0.17145 v 0.67945 q 0,0.12065 -0.05715,0.1778 -0.0508,0.0508 -0.17145,0.0508 h -1.23825 v 0.5461 h 1.7526 q 0.12065,0 0.17145,0.05715 0.05715,0.0508 0.05715,0.17145 v 0.74295 q 0,0.12065 -0.05715,0.1778 -0.0508,0.0508 -0.17145,0.0508 z"
           id="path564" />
        <path
           d="m 35.995847,45.03125 h -1.0287 q -0.12065,0 -0.1778,-0.0508 -0.0508,-0.05715 -0.0508,-0.1778 V 41.6848 h -0.93345 q -0.12065,0 -0.1778,-0.0508 -0.0508,-0.05715 -0.0508,-0.1778 v -0.76835 q 0,-0.12065 0.0508,-0.17145 0.05715,-0.05715 0.1778,-0.05715 h 3.3528 q 0.12065,0 0.17145,0.05715 0.05715,0.0508 0.05715,0.17145 v 0.76835 q 0,0.12065 -0.05715,0.1778 -0.0508,0.0508 -0.17145,0.0508 h -0.93345 v 3.11785 q 0,0.12065 -0.05715,0.1778 -0.0508,0.0508 -0.17145,0.0508 z"
           id="path566" />
      </g>
      <g
         aria-label="FIT"
         transform="matrix(2.2283968,0,0,2.2283968,36.876594,-23.127003)"
         id="text119"
         style="font-weight:bold;font-size:6.35px;font-family:Bungee;-inkscape-font-specification:'Bungee Bold';white-space:pre;fill:#d00708;stroke-width:0.264583;filter:url(#filter1770)">
        <path
           d="m 26.401,45.03125 h -0.98425 q -0.12065,0 -0.1778,-0.0508 -0.0508,-0.05715 -0.0508,-0.1778 v -4.1148 q 0,-0.12065 0.0508,-0.17145 0.05715,-0.05715 0.1778,-0.05715 h 2.8321 q 0.12065,0 0.17145,0.05715 0.05715,0.0508 0.05715,0.17145 v 0.75565 q 0,0.12065 -0.05715,0.1778 -0.0508,0.0508 -0.17145,0.0508 H 26.6296 v 0.6604 h 1.1049 q 0.12065,0 0.17145,0.05715 0.05715,0.0508 0.05715,0.17145 v 0.762 q 0,0.12065 -0.05715,0.1778 -0.0508,0.0508 -0.17145,0.0508 h -1.1049 v 1.25095 q 0,0.12065 -0.05715,0.1778 -0.0508,0.0508 -0.17145,0.0508 z"
           id="path575" />
        <path
           d="m 29.23945,45.03125 q -0.12065,0 -0.1778,-0.0508 -0.0508,-0.05715 -0.0508,-0.1778 V 44.047 q 0,-0.12065 0.0508,-0.17145 0.05715,-0.05715 0.1778,-0.05715 h 0.62865 v -2.1336 h -0.62865 q -0.12065,0 -0.1778,-0.0508 -0.0508,-0.05715 -0.0508,-0.1778 v -0.76835 q 0,-0.12065 0.0508,-0.17145 0.05715,-0.05715 0.1778,-0.05715 h 2.7051 q 0.12065,0 0.17145,0.05715 0.05715,0.0508 0.05715,0.17145 v 0.76835 q 0,0.12065 -0.05715,0.1778 -0.0508,0.0508 -0.17145,0.0508 H 31.3286 v 2.1336 h 0.61595 q 0.12065,0 0.17145,0.05715 0.05715,0.0508 0.05715,0.17145 v 0.75565 q 0,0.12065 -0.05715,0.1778 -0.0508,0.0508 -0.17145,0.0508 z"
           id="path577" />
        <path
           d="m 35.113197,45.03125 h -1.0287 q -0.12065,0 -0.1778,-0.0508 -0.0508,-0.05715 -0.0508,-0.1778 V 41.6848 h -0.93345 q -0.12065,0 -0.1778,-0.0508 -0.0508,-0.05715 -0.0508,-0.1778 v -0.76835 q 0,-0.12065 0.0508,-0.17145 0.05715,-0.05715 0.1778,-0.05715 h 3.3528 q 0.12065,0 0.17145,0.05715 0.05715,0.0508 0.05715,0.17145 v 0.76835 q 0,0.12065 -0.05715,0.1778 -0.0508,0.0508 -0.17145,0.0508 h -0.93345 v 3.11785 q 0,0.12065 -0.05715,0.1778 -0.0508,0.0508 -0.17145,0.0508 z"
           id="path579" />
      </g>
    </g>
  </g>
</svg>
